<?xml version="1.0" encoding="utf-8"?>
<!-- Generator: Adobe Illustrator 16.0.0, SVG Export Plug-In . SVG Version: 6.00 Build 0)  -->
<!DOCTYPE svg PUBLIC "-//W3C//DTD SVG 1.1//EN" "http://www.w3.org/Graphics/SVG/1.1/DTD/svg11.dtd">
<svg version="1.1" id="Layer_1" xmlns="http://www.w3.org/2000/svg" xmlns:xlink="http://www.w3.org/1999/xlink" x="0px" y="0px"
	 width="484.477px" height="292.484px" viewBox="0 0 484.477 292.484" enable-background="new 0 0 484.477 292.484"
	 xml:space="preserve">
<g>
	<g>
		<line fill="none" stroke="#000000" stroke-width="3" stroke-miterlimit="10" x1="141.816" y1="47.557" x2="146.816" y2="47.557"/>
		
			<line fill="none" stroke="#000000" stroke-width="3" stroke-miterlimit="10" stroke-dasharray="9.8704,9.8704" x1="156.687" y1="47.557" x2="428.122" y2="47.557"/>
		<polyline fill="none" stroke="#000000" stroke-width="3" stroke-miterlimit="10" points="433.057,47.557 438.057,47.557 
			438.057,52.557 		"/>
		
			<line fill="none" stroke="#000000" stroke-width="3" stroke-miterlimit="10" stroke-dasharray="10.3007,10.3007" x1="438.057" y1="62.857" x2="438.057" y2="160.715"/>
		
			<line fill="none" stroke="#000000" stroke-width="3" stroke-miterlimit="10" x1="438.057" y1="165.865" x2="438.057" y2="170.865"/>
	</g>
</g>
<polygon fill="none" stroke="#000000" stroke-width="3" stroke-miterlimit="10" points="83.169,249.061 89.937,215.227 
	40.312,215.227 40.312,65.601 420.763,65.601 420.763,215.227 110.237,215.227 "/>
<g enable-background="new    ">
	<path d="M88.518,116.825h11.28v14.742c-1.828,0.597-3.549,1.015-5.164,1.255c-1.614,0.239-3.264,0.359-4.95,0.359
		c-4.292,0-7.569-1.261-9.832-3.782s-3.394-6.143-3.394-10.862c0-4.59,1.312-8.169,3.938-10.735
		c2.625-2.567,6.265-3.852,10.92-3.852c2.917,0,5.73,0.584,8.44,1.751l-2.003,4.823c-2.075-1.037-4.233-1.556-6.477-1.556
		c-2.606,0-4.694,0.875-6.262,2.625c-1.569,1.75-2.354,4.104-2.354,7.06c0,3.086,0.632,5.443,1.896,7.07
		c1.264,1.627,3.102,2.44,5.514,2.44c1.257,0,2.535-0.129,3.831-0.389v-5.932h-5.387V116.825z"/>
	<path d="M123.35,124.897c0,2.567-0.924,4.59-2.771,6.068s-4.418,2.217-7.711,2.217c-3.034,0-5.718-0.57-8.052-1.711v-5.602
		c1.919,0.855,3.543,1.459,4.872,1.809c1.329,0.351,2.544,0.525,3.646,0.525c1.323,0,2.337-0.253,3.044-0.759
		c0.707-0.506,1.06-1.257,1.06-2.256c0-0.558-0.155-1.054-0.467-1.487c-0.311-0.435-0.768-0.853-1.371-1.255
		c-0.603-0.401-1.832-1.044-3.686-1.926c-1.737-0.816-3.041-1.601-3.909-2.353s-1.562-1.628-2.081-2.626s-0.778-2.165-0.778-3.501
		c0-2.515,0.853-4.492,2.558-5.932c1.705-1.439,4.062-2.159,7.07-2.159c1.478,0,2.888,0.176,4.23,0.525
		c1.342,0.351,2.745,0.843,4.21,1.479l-1.945,4.687c-1.517-0.622-2.771-1.057-3.763-1.303c-0.992-0.246-1.968-0.369-2.927-0.369
		c-1.141,0-2.016,0.266-2.625,0.797c-0.609,0.532-0.914,1.226-0.914,2.081c0,0.532,0.123,0.995,0.37,1.391
		c0.246,0.396,0.638,0.778,1.177,1.147c0.538,0.369,1.812,1.034,3.821,1.993c2.658,1.271,4.48,2.545,5.465,3.822
		S123.35,123.043,123.35,124.897z"/>
	<path d="M139.474,132.793h-6.029v-23.416h-7.721v-5.018h21.471v5.018h-7.721V132.793z"/>
</g>
<g enable-background="new    ">
	<path d="M165.553,120.968v11.825h-3.306V104.36h7.799c3.488,0,6.065,0.668,7.731,2.003s2.499,3.345,2.499,6.029
		c0,3.76-1.906,6.301-5.718,7.624l7.721,12.777h-3.909l-6.885-11.825H165.553z M165.553,118.129h4.532
		c2.334,0,4.045-0.464,5.134-1.391c1.089-0.927,1.634-2.317,1.634-4.172c0-1.88-0.554-3.235-1.663-4.064
		c-1.109-0.83-2.888-1.245-5.339-1.245h-4.298V118.129z"/>
	<path d="M195.388,133.182c-3.151,0-5.637-0.959-7.458-2.878c-1.822-1.919-2.732-4.583-2.732-7.993c0-3.437,0.846-6.166,2.538-8.188
		c1.692-2.022,3.964-3.034,6.816-3.034c2.671,0,4.785,0.879,6.34,2.636c1.556,1.757,2.334,4.074,2.334,6.953v2.042h-14.684
		c0.065,2.502,0.697,4.402,1.896,5.698c1.199,1.297,2.888,1.945,5.066,1.945c2.295,0,4.564-0.479,6.807-1.439v2.878
		c-1.141,0.493-2.221,0.847-3.238,1.061C198.055,133.075,196.827,133.182,195.388,133.182z M194.513,113.792
		c-1.712,0-3.077,0.558-4.094,1.672c-1.018,1.115-1.618,2.658-1.799,4.629h11.144c0-2.035-0.454-3.595-1.361-4.677
		C197.495,114.333,196.198,113.792,194.513,113.792z"/>
	<path d="M226.176,111.478v2.042l-3.948,0.467c0.363,0.454,0.687,1.047,0.973,1.779c0.285,0.732,0.428,1.56,0.428,2.479
		c0,2.088-0.713,3.754-2.14,4.998c-1.426,1.245-3.384,1.867-5.874,1.867c-0.635,0-1.232-0.052-1.789-0.155
		c-1.375,0.727-2.062,1.641-2.062,2.742c0,0.584,0.24,1.015,0.72,1.294c0.479,0.278,1.303,0.418,2.47,0.418h3.773
		c2.308,0,4.081,0.486,5.319,1.458c1.238,0.973,1.857,2.386,1.857,4.24c0,2.359-0.947,4.158-2.839,5.396
		c-1.894,1.238-4.655,1.857-8.285,1.857c-2.788,0-4.937-0.519-6.447-1.556c-1.511-1.037-2.266-2.502-2.266-4.396
		c0-1.297,0.415-2.418,1.245-3.364c0.83-0.946,1.996-1.588,3.5-1.926c-0.544-0.246-1.001-0.629-1.371-1.147
		s-0.554-1.121-0.554-1.809c0-0.778,0.207-1.459,0.622-2.042s1.07-1.147,1.964-1.692c-1.102-0.453-2-1.225-2.693-2.314
		c-0.694-1.089-1.041-2.333-1.041-3.733c0-2.334,0.7-4.133,2.101-5.397c1.4-1.264,3.384-1.896,5.951-1.896
		c1.115,0,2.12,0.13,3.015,0.39H226.176z M209.177,136.371c0,1.154,0.486,2.029,1.459,2.626c0.972,0.597,2.366,0.895,4.181,0.895
		c2.71,0,4.716-0.405,6.02-1.216c1.303-0.81,1.955-1.909,1.955-3.296c0-1.154-0.357-1.955-1.07-2.402s-2.055-0.671-4.026-0.671
		h-3.87c-1.465,0-2.606,0.351-3.423,1.051S209.177,135.062,209.177,136.371z M210.927,118.304c0,1.491,0.421,2.619,1.264,3.384
		c0.843,0.766,2.016,1.147,3.521,1.147c3.15,0,4.726-1.529,4.726-4.59c0-3.202-1.595-4.804-4.785-4.804
		c-1.517,0-2.684,0.408-3.5,1.226C211.336,115.484,210.927,116.697,210.927,118.304z"/>
	<path d="M230.279,105.701c0-0.739,0.181-1.28,0.544-1.624c0.363-0.344,0.817-0.516,1.361-0.516c0.519,0,0.966,0.175,1.342,0.525
		c0.376,0.35,0.564,0.888,0.564,1.614c0,0.726-0.188,1.268-0.564,1.624s-0.823,0.534-1.342,0.534c-0.544,0-0.999-0.178-1.361-0.534
		C230.46,106.969,230.279,106.427,230.279,105.701z M233.78,132.793h-3.229v-21.315h3.229V132.793z"/>
	<path d="M254.377,126.978c0,1.984-0.74,3.514-2.218,4.59c-1.478,1.077-3.553,1.614-6.224,1.614c-2.826,0-5.031-0.447-6.612-1.342
		v-2.995c1.024,0.519,2.123,0.928,3.296,1.226c1.173,0.298,2.304,0.447,3.394,0.447c1.686,0,2.982-0.27,3.89-0.808
		c0.907-0.537,1.361-1.357,1.361-2.46c0-0.829-0.36-1.539-1.079-2.13c-0.721-0.59-2.123-1.286-4.211-2.091
		c-1.984-0.738-3.394-1.384-4.23-1.935c-0.836-0.551-1.459-1.177-1.867-1.877c-0.409-0.7-0.613-1.536-0.613-2.509
		c0-1.737,0.707-3.108,2.12-4.113c1.413-1.005,3.352-1.508,5.814-1.508c2.295,0,4.539,0.467,6.73,1.4l-1.148,2.626
		c-2.139-0.882-4.078-1.322-5.814-1.322c-1.53,0-2.685,0.239-3.463,0.719c-0.777,0.48-1.167,1.142-1.167,1.984
		c0,0.57,0.146,1.057,0.438,1.458c0.291,0.402,0.762,0.785,1.41,1.147c0.648,0.363,1.893,0.889,3.734,1.576
		c2.527,0.921,4.236,1.848,5.124,2.781S254.377,125.565,254.377,126.978z"/>
	<path d="M266.511,130.518c0.571,0,1.122-0.042,1.654-0.127c0.531-0.084,0.953-0.171,1.264-0.262v2.47
		c-0.35,0.169-0.865,0.308-1.546,0.418s-1.294,0.165-1.839,0.165c-4.123,0-6.184-2.171-6.184-6.515v-12.681h-3.054v-1.557
		l3.054-1.342l1.361-4.551h1.867v4.94h6.184v2.509h-6.184v12.544c0,1.284,0.305,2.27,0.914,2.956
		C264.613,130.174,265.449,130.518,266.511,130.518z"/>
	<path d="M283.413,111.088c0.946,0,1.796,0.078,2.548,0.233l-0.447,2.995c-0.883-0.194-1.66-0.291-2.334-0.291
		c-1.725,0-3.199,0.699-4.425,2.1s-1.838,3.145-1.838,5.232v11.436h-3.229v-21.315h2.665l0.369,3.947h0.156
		c0.79-1.387,1.743-2.456,2.858-3.209C280.851,111.465,282.077,111.088,283.413,111.088z"/>
	<path d="M303.056,132.793l-0.643-3.034h-0.155c-1.063,1.336-2.123,2.24-3.18,2.713c-1.058,0.474-2.376,0.71-3.958,0.71
		c-2.113,0-3.77-0.544-4.969-1.634c-1.199-1.089-1.799-2.638-1.799-4.647c0-4.305,3.441-6.561,10.326-6.769l3.618-0.116v-1.323
		c0-1.672-0.36-2.907-1.079-3.705c-0.72-0.797-1.871-1.195-3.453-1.195c-1.775,0-3.785,0.544-6.028,1.633l-0.992-2.47
		c1.05-0.57,2.2-1.018,3.452-1.342s2.506-0.486,3.764-0.486c2.541,0,4.424,0.564,5.65,1.692c1.225,1.128,1.838,2.937,1.838,5.426
		v14.548H303.056z M295.763,130.518c2.009,0,3.588-0.551,4.735-1.653c1.147-1.102,1.722-2.645,1.722-4.629v-1.925l-3.229,0.136
		c-2.568,0.091-4.419,0.489-5.553,1.196c-1.135,0.707-1.702,1.806-1.702,3.296c0,1.167,0.353,2.056,1.06,2.665
		S294.492,130.518,295.763,130.518z"/>
	<path d="M318.984,130.518c0.571,0,1.122-0.042,1.654-0.127c0.531-0.084,0.953-0.171,1.264-0.262v2.47
		c-0.35,0.169-0.865,0.308-1.546,0.418s-1.294,0.165-1.839,0.165c-4.123,0-6.184-2.171-6.184-6.515v-12.681h-3.054v-1.557
		l3.054-1.342l1.361-4.551h1.867v4.94h6.184v2.509h-6.184v12.544c0,1.284,0.305,2.27,0.914,2.956
		C317.086,130.174,317.922,130.518,318.984,130.518z"/>
	<path d="M325.888,105.701c0-0.739,0.182-1.28,0.545-1.624s0.816-0.516,1.361-0.516c0.519,0,0.966,0.175,1.342,0.525
		c0.376,0.35,0.564,0.888,0.564,1.614c0,0.726-0.188,1.268-0.564,1.624s-0.823,0.534-1.342,0.534c-0.545,0-0.998-0.178-1.361-0.534
		S325.888,106.427,325.888,105.701z M329.389,132.793h-3.229v-21.315h3.229V132.793z"/>
	<path d="M354.635,122.115c0,3.476-0.875,6.188-2.626,8.14s-4.169,2.927-7.255,2.927c-1.905,0-3.598-0.447-5.076-1.342
		c-1.478-0.895-2.619-2.178-3.422-3.851c-0.805-1.673-1.206-3.63-1.206-5.874c0-3.475,0.868-6.181,2.606-8.119
		c1.736-1.938,4.148-2.908,7.234-2.908c2.982,0,5.352,0.992,7.108,2.976C353.756,116.048,354.635,118.732,354.635,122.115z
		 M338.394,122.115c0,2.724,0.545,4.798,1.634,6.224c1.089,1.427,2.69,2.14,4.804,2.14s3.719-0.71,4.814-2.13
		c1.095-1.42,1.643-3.497,1.643-6.233c0-2.709-0.548-4.768-1.643-6.175c-1.096-1.406-2.714-2.11-4.854-2.11
		c-2.113,0-3.708,0.694-4.784,2.081C338.932,117.299,338.394,119.367,338.394,122.115z"/>
	<path d="M374.881,132.793v-13.789c0-1.737-0.396-3.034-1.187-3.89c-0.791-0.855-2.029-1.284-3.715-1.284
		c-2.229,0-3.864,0.604-4.901,1.81c-1.037,1.205-1.556,3.196-1.556,5.971v11.183h-3.229v-21.315h2.626l0.525,2.917h0.155
		c0.661-1.051,1.588-1.864,2.78-2.44c1.193-0.577,2.522-0.866,3.988-0.866c2.566,0,4.498,0.619,5.795,1.857s1.945,3.219,1.945,5.941
		v13.906H374.881z"/>
</g>
<g enable-background="new    ">
	<path d="M77.296,144.39c0-0.739,0.181-1.28,0.544-1.624c0.363-0.344,0.817-0.516,1.361-0.516c0.519,0,0.966,0.175,1.342,0.525
		c0.376,0.35,0.564,0.888,0.564,1.614c0,0.726-0.188,1.268-0.564,1.624s-0.823,0.534-1.342,0.534c-0.544,0-0.999-0.178-1.361-0.534
		C77.477,145.657,77.296,145.115,77.296,144.39z M80.797,171.482h-3.229v-21.315h3.229V171.482z"/>
	<path d="M102.229,171.482v-13.789c0-1.737-0.396-3.034-1.187-3.89c-0.791-0.855-2.029-1.284-3.715-1.284
		c-2.23,0-3.864,0.604-4.901,1.81c-1.038,1.205-1.556,3.196-1.556,5.971v11.183h-3.229v-21.315h2.625l0.525,2.917h0.156
		c0.661-1.051,1.588-1.864,2.781-2.44c1.193-0.577,2.522-0.866,3.987-0.866c2.567,0,4.499,0.619,5.795,1.857
		s1.945,3.219,1.945,5.941v13.906H102.229z"/>
</g>
<g enable-background="new    ">
	<path d="M123.428,171.482l10.677-23.339h-14.022v-5.057h20.401v3.773l-10.755,24.622H123.428z"/>
</g>
<g enable-background="new    ">
	<path d="M172.926,171.482l-3.909-12.506c-0.247-0.765-0.707-2.502-1.381-5.212h-0.156c-0.519,2.27-0.972,4.02-1.361,5.251
		l-4.026,12.467h-3.734l-5.815-21.315h3.384c1.374,5.354,2.421,9.433,3.141,12.232c0.72,2.801,1.131,4.688,1.235,5.66h0.155
		c0.143-0.739,0.373-1.695,0.69-2.869c0.318-1.173,0.593-2.104,0.827-2.791l3.909-12.232h3.501l3.812,12.232
		c0.726,2.23,1.218,4.104,1.478,5.621h0.155c0.052-0.467,0.191-1.187,0.418-2.159c0.227-0.972,1.578-6.204,4.055-15.694h3.345
		l-5.893,21.315H172.926z"/>
	<path d="M204.899,160.804c0,3.476-0.875,6.188-2.625,8.14s-4.168,2.927-7.254,2.927c-1.906,0-3.598-0.447-5.076-1.342
		c-1.478-0.895-2.619-2.178-3.423-3.851c-0.804-1.673-1.206-3.63-1.206-5.874c0-3.475,0.868-6.181,2.606-8.119
		c1.737-1.938,4.149-2.908,7.235-2.908c2.982,0,5.352,0.992,7.108,2.976C204.021,154.737,204.899,157.42,204.899,160.804z
		 M188.659,160.804c0,2.724,0.545,4.798,1.634,6.224c1.089,1.427,2.69,2.14,4.804,2.14c2.113,0,3.718-0.71,4.813-2.13
		c1.095-1.42,1.643-3.497,1.643-6.233c0-2.709-0.548-4.768-1.643-6.175c-1.096-1.406-2.713-2.11-4.853-2.11
		c-2.114,0-3.708,0.694-4.785,2.081C189.198,155.988,188.659,158.056,188.659,160.804z"/>
	<path d="M220.283,149.777c0.946,0,1.795,0.078,2.548,0.233l-0.447,2.995c-0.882-0.194-1.66-0.291-2.334-0.291
		c-1.725,0-3.199,0.699-4.425,2.1c-1.225,1.4-1.838,3.145-1.838,5.232v11.436h-3.229v-21.315h2.665l0.37,3.947h0.156
		c0.791-1.387,1.744-2.456,2.859-3.209C217.722,150.154,218.948,149.777,220.283,149.777z"/>
	<path d="M230.008,160.571c0.557-0.79,1.406-1.828,2.547-3.111l6.885-7.293h3.831l-8.635,9.082l9.238,12.233h-3.909l-7.527-10.074
		l-2.431,2.101v7.974h-3.19v-30.263h3.19v16.046c0,0.713-0.052,1.815-0.156,3.306H230.008z"/>
	<path d="M247.453,144.39c0-0.739,0.182-1.28,0.545-1.624s0.816-0.516,1.361-0.516c0.519,0,0.966,0.175,1.342,0.525
		c0.376,0.35,0.564,0.888,0.564,1.614c0,0.726-0.188,1.268-0.564,1.624s-0.823,0.534-1.342,0.534c-0.545,0-0.998-0.178-1.361-0.534
		S247.453,145.115,247.453,144.39z M250.954,171.482h-3.229v-21.315h3.229V171.482z"/>
	<path d="M272.386,171.482v-13.789c0-1.737-0.396-3.034-1.187-3.89c-0.791-0.855-2.029-1.284-3.715-1.284
		c-2.229,0-3.864,0.604-4.901,1.81c-1.037,1.205-1.556,3.196-1.556,5.971v11.183H257.8v-21.315h2.626l0.525,2.917h0.155
		c0.661-1.051,1.588-1.864,2.78-2.44c1.193-0.577,2.522-0.866,3.988-0.866c2.566,0,4.498,0.619,5.795,1.857s1.945,3.219,1.945,5.941
		v13.906H272.386z"/>
	<path d="M299.693,150.166v2.042l-3.949,0.467c0.363,0.454,0.688,1.047,0.973,1.779s0.428,1.56,0.428,2.479
		c0,2.088-0.713,3.754-2.139,4.998c-1.427,1.245-3.385,1.867-5.874,1.867c-0.636,0-1.231-0.052-1.789-0.155
		c-1.374,0.727-2.062,1.641-2.062,2.742c0,0.584,0.24,1.015,0.72,1.294c0.479,0.278,1.303,0.418,2.47,0.418h3.773
		c2.308,0,4.08,0.486,5.318,1.458c1.238,0.973,1.857,2.386,1.857,4.24c0,2.359-0.946,4.158-2.839,5.396
		c-1.894,1.238-4.655,1.857-8.285,1.857c-2.788,0-4.937-0.519-6.447-1.556s-2.267-2.502-2.267-4.396
		c0-1.297,0.416-2.418,1.246-3.364c0.829-0.946,1.996-1.588,3.5-1.926c-0.545-0.246-1.002-0.629-1.371-1.147
		s-0.555-1.121-0.555-1.809c0-0.778,0.207-1.459,0.623-2.042c0.414-0.583,1.069-1.147,1.964-1.692c-1.103-0.453-2-1.225-2.693-2.314
		c-0.694-1.089-1.04-2.333-1.04-3.733c0-2.334,0.699-4.133,2.1-5.397c1.4-1.264,3.385-1.896,5.951-1.896
		c1.115,0,2.12,0.13,3.016,0.39H299.693z M282.694,175.06c0,1.154,0.486,2.029,1.459,2.626c0.972,0.597,2.366,0.895,4.181,0.895
		c2.711,0,4.717-0.405,6.02-1.216c1.304-0.81,1.955-1.909,1.955-3.296c0-1.154-0.357-1.955-1.07-2.402s-2.055-0.671-4.025-0.671
		h-3.87c-1.466,0-2.606,0.351-3.423,1.051S282.694,173.75,282.694,175.06z M284.445,156.992c0,1.491,0.421,2.619,1.264,3.384
		c0.843,0.766,2.016,1.147,3.521,1.147c3.15,0,4.726-1.529,4.726-4.59c0-3.202-1.595-4.804-4.784-4.804
		c-1.517,0-2.685,0.408-3.501,1.226C284.853,154.172,284.445,155.385,284.445,156.992z"/>
	<path d="M328.924,168.622h-0.175c-1.491,2.166-3.722,3.248-6.69,3.248c-2.788,0-4.957-0.953-6.506-2.858
		c-1.549-1.906-2.324-4.616-2.324-8.13s0.778-6.243,2.334-8.188c1.557-1.945,3.721-2.918,6.496-2.918
		c2.891,0,5.108,1.051,6.651,3.151h0.253l-0.137-1.537l-0.077-1.497v-8.675h3.229v30.263h-2.626L328.924,168.622z M322.467,169.167
		c2.204,0,3.803-0.6,4.795-1.799c0.991-1.199,1.487-3.135,1.487-5.806v-0.681c0-3.021-0.503-5.177-1.507-6.467
		c-1.006-1.29-2.609-1.935-4.814-1.935c-1.893,0-3.342,0.735-4.347,2.207s-1.507,3.55-1.507,6.233c0,2.723,0.498,4.778,1.497,6.165
		C319.07,168.474,320.535,169.167,322.467,169.167z"/>
	<path d="M351.931,171.482l-0.642-3.034h-0.155c-1.063,1.336-2.123,2.24-3.18,2.713c-1.058,0.474-2.377,0.71-3.959,0.71
		c-2.113,0-3.77-0.544-4.969-1.634c-1.199-1.089-1.799-2.638-1.799-4.647c0-4.305,3.442-6.561,10.327-6.769l3.618-0.116v-1.323
		c0-1.672-0.36-2.907-1.08-3.705c-0.719-0.797-1.87-1.195-3.452-1.195c-1.776,0-3.786,0.544-6.028,1.633l-0.992-2.47
		c1.05-0.57,2.2-1.018,3.451-1.342c1.252-0.324,2.506-0.486,3.764-0.486c2.541,0,4.425,0.564,5.65,1.692
		c1.225,1.128,1.838,2.937,1.838,5.426v14.548H351.931z M344.638,169.206c2.01,0,3.588-0.551,4.736-1.653
		c1.146-1.102,1.721-2.645,1.721-4.629v-1.925l-3.229,0.136c-2.567,0.091-4.418,0.489-5.553,1.196s-1.701,1.806-1.701,3.296
		c0,1.167,0.353,2.056,1.059,2.665C342.379,168.902,343.367,169.206,344.638,169.206z"/>
	<path d="M357.592,150.166h3.462l4.667,12.155c1.024,2.774,1.66,4.777,1.906,6.01h0.156c0.168-0.661,0.521-1.793,1.06-3.395
		c0.538-1.601,2.298-6.524,5.28-14.771h3.462l-9.16,24.271c-0.907,2.398-1.968,4.101-3.181,5.105
		c-1.212,1.005-2.699,1.507-4.463,1.507c-0.985,0-1.958-0.11-2.918-0.33v-2.587c0.713,0.155,1.511,0.233,2.393,0.233
		c2.217,0,3.799-1.245,4.746-3.734l1.186-3.034L357.592,150.166z"/>
	<path d="M394.797,165.666c0,1.984-0.739,3.514-2.217,4.59c-1.479,1.077-3.553,1.614-6.225,1.614c-2.826,0-5.03-0.447-6.611-1.342
		v-2.995c1.023,0.519,2.122,0.928,3.296,1.226c1.173,0.298,2.305,0.447,3.394,0.447c1.686,0,2.982-0.27,3.891-0.808
		c0.906-0.537,1.361-1.357,1.361-2.46c0-0.829-0.36-1.539-1.08-2.13c-0.72-0.59-2.123-1.286-4.211-2.091
		c-1.983-0.738-3.394-1.384-4.229-1.935c-0.837-0.551-1.459-1.177-1.867-1.877c-0.409-0.7-0.612-1.536-0.612-2.509
		c0-1.737,0.706-3.108,2.119-4.113c1.414-1.005,3.352-1.508,5.815-1.508c2.295,0,4.538,0.467,6.729,1.4l-1.147,2.626
		c-2.14-0.882-4.078-1.322-5.815-1.322c-1.529,0-2.684,0.239-3.462,0.719c-0.778,0.48-1.167,1.142-1.167,1.984
		c0,0.57,0.146,1.057,0.438,1.458c0.292,0.402,0.762,0.785,1.41,1.147c0.648,0.363,1.893,0.889,3.734,1.576
		c2.528,0.921,4.236,1.848,5.125,2.781C394.352,163.08,394.797,164.253,394.797,165.666z"/>
</g>
<polyline fill="none" stroke="#000000" stroke-miterlimit="10" points="52.342,121.241 52.342,76.88 281.666,76.88 "/>
<polyline fill="none" stroke="#000000" stroke-miterlimit="10" points="407.229,170.113 407.229,202.443 157.605,202.443 "/>
</svg>
